<svg width="22" height="17" viewBox="0 0 22 17" fill="none" xmlns="http://www.w3.org/2000/svg">
<path d="M17.9664 1.83005C16.6364 1.21005 15.1964 0.760046 13.6964 0.500046C13.6833 0.499625 13.6702 0.502093 13.6581 0.507277C13.646 0.51246 13.6352 0.520233 13.6264 0.530046C13.4464 0.860046 13.2364 1.29005 13.0964 1.62005C11.5054 1.38005 9.88741 1.38005 8.29641 1.62005C8.15641 1.28005 7.94641 0.860046 7.75641 0.530046C7.74641 0.510046 7.71641 0.500046 7.68641 0.500046C6.18641 0.760046 4.75641 1.21005 3.41641 1.83005C3.40641 1.83005 3.39641 1.84005 3.38641 1.85005C0.666406 5.92005 -0.0835937 9.88004 0.286406 13.8C0.286406 13.82 0.296406 13.84 0.316406 13.85C2.11641 15.17 3.84641 15.97 5.55641 16.5C5.58641 16.51 5.61641 16.5 5.62641 16.48C6.02641 15.93 6.38641 15.35 6.69641 14.74C6.71641 14.7 6.69641 14.66 6.65641 14.65C6.08641 14.43 5.54641 14.17 5.01641 13.87C4.97641 13.85 4.97641 13.79 5.00641 13.76C5.11641 13.68 5.22641 13.59 5.33641 13.51C5.35641 13.49 5.38641 13.49 5.40641 13.5C8.84641 15.07 12.5564 15.07 15.9564 13.5C15.9764 13.49 16.0064 13.49 16.0264 13.51C16.1364 13.6 16.2464 13.68 16.3564 13.77C16.3964 13.8 16.3964 13.86 16.3464 13.88C15.8264 14.19 15.2764 14.44 14.7064 14.66C14.6664 14.67 14.6564 14.72 14.6664 14.75C14.9864 15.36 15.3464 15.94 15.7364 16.49C15.7664 16.5 15.7964 16.51 15.8264 16.5C17.5464 15.97 19.2764 15.17 21.0764 13.85C21.0964 13.84 21.1064 13.82 21.1064 13.8C21.5464 9.27004 20.3764 5.34005 18.0064 1.85005C17.9964 1.84005 17.9864 1.83005 17.9664 1.83005ZM7.21641 11.41C6.18641 11.41 5.32641 10.46 5.32641 9.29005C5.32641 8.12005 6.16641 7.17005 7.21641 7.17005C8.27641 7.17005 9.11641 8.13005 9.10641 9.29005C9.10641 10.46 8.26641 11.41 7.21641 11.41ZM14.1864 11.41C13.1564 11.41 12.2964 10.46 12.2964 9.29005C12.2964 8.12005 13.1364 7.17005 14.1864 7.17005C15.2464 7.17005 16.0864 8.13005 16.0764 9.29005C16.0764 10.46 15.2464 11.41 14.1864 11.41Z" fill="#FAFAFA"/>
</svg>
