<svg width="48" height="49" viewBox="0 0 48 49" fill="none" xmlns="http://www.w3.org/2000/svg">
<mask id="mask0_1239_1884" style="mask-type:alpha" maskUnits="userSpaceOnUse" x="0" y="0" width="48" height="49">
<rect y="0.5" width="48" height="48" fill="#D9D9D9"/>
</mask>
<g mask="url(#mask0_1239_1884)">
<path d="M0 36.5V33.35C0 31.9167 0.733333 30.75 2.2 29.85C3.66667 28.95 5.6 28.5 8 28.5C8.43333 28.5 8.85 28.5083 9.25 28.525C9.65 28.5417 10.0333 28.5833 10.4 28.65C9.93333 29.35 9.58333 30.0833 9.35 30.85C9.11667 31.6167 9 32.4167 9 33.25V36.5H0ZM12 36.5V33.25C12 32.1833 12.2917 31.2083 12.875 30.325C13.4583 29.4417 14.2833 28.6667 15.35 28C16.4167 27.3333 17.6917 26.8333 19.175 26.5C20.6583 26.1667 22.2667 26 24 26C25.7667 26 27.3917 26.1667 28.875 26.5C30.3583 26.8333 31.6333 27.3333 32.7 28C33.7667 28.6667 34.5833 29.4417 35.15 30.325C35.7167 31.2083 36 32.1833 36 33.25V36.5H12ZM39 36.5V33.25C39 32.3833 38.8917 31.5667 38.675 30.8C38.4583 30.0333 38.1333 29.3167 37.7 28.65C38.0667 28.5833 38.4417 28.5417 38.825 28.525C39.2083 28.5083 39.6 28.5 40 28.5C42.4 28.5 44.3333 28.9417 45.8 29.825C47.2667 30.7083 48 31.8833 48 33.35V36.5H39ZM16.25 32.5H31.8C31.4667 31.8333 30.5417 31.25 29.025 30.75C27.5083 30.25 25.8333 30 24 30C22.1667 30 20.4917 30.25 18.975 30.75C17.4583 31.25 16.55 31.8333 16.25 32.5ZM8 26.5C6.9 26.5 5.95833 26.1083 5.175 25.325C4.39167 24.5417 4 23.6 4 22.5C4 21.3667 4.39167 20.4167 5.175 19.65C5.95833 18.8833 6.9 18.5 8 18.5C9.13333 18.5 10.0833 18.8833 10.85 19.65C11.6167 20.4167 12 21.3667 12 22.5C12 23.6 11.6167 24.5417 10.85 25.325C10.0833 26.1083 9.13333 26.5 8 26.5ZM40 26.5C38.9 26.5 37.9583 26.1083 37.175 25.325C36.3917 24.5417 36 23.6 36 22.5C36 21.3667 36.3917 20.4167 37.175 19.65C37.9583 18.8833 38.9 18.5 40 18.5C41.1333 18.5 42.0833 18.8833 42.85 19.65C43.6167 20.4167 44 21.3667 44 22.5C44 23.6 43.6167 24.5417 42.85 25.325C42.0833 26.1083 41.1333 26.5 40 26.5ZM24 24.5C22.3333 24.5 20.9167 23.9167 19.75 22.75C18.5833 21.5833 18 20.1667 18 18.5C18 16.8 18.5833 15.375 19.75 14.225C20.9167 13.075 22.3333 12.5 24 12.5C25.7 12.5 27.125 13.075 28.275 14.225C29.425 15.375 30 16.8 30 18.5C30 20.1667 29.425 21.5833 28.275 22.75C27.125 23.9167 25.7 24.5 24 24.5ZM24 20.5C24.5667 20.5 25.0417 20.3083 25.425 19.925C25.8083 19.5417 26 19.0667 26 18.5C26 17.9333 25.8083 17.4583 25.425 17.075C25.0417 16.6917 24.5667 16.5 24 16.5C23.4333 16.5 22.9583 16.6917 22.575 17.075C22.1917 17.4583 22 17.9333 22 18.5C22 19.0667 22.1917 19.5417 22.575 19.925C22.9583 20.3083 23.4333 20.5 24 20.5Z" fill="white"/>
</g>
</svg>
